<svg width="265" height="300" viewBox="0 0 265 300" fill="none" xmlns="http://www.w3.org/2000/svg">
<g clip-path="url(#clip0_3_1627)">
<path d="M80.5 272.5V295.5H74.5V246L80.5 251.5H91.5L88.5 272.5H80.5Z" fill="#EBF3FA"/>
<path d="M217 219.5H184.5L187 230.5H197.5C220.5 230.5 231 257 249 256.5C255.797 256.311 292.5 255.5 297 255.5C274.5 255.5 237.5 219.5 217 219.5Z" fill="#EBF3FA"/>
<path d="M172 73H209" stroke="#EBF3FA" stroke-width="2" stroke-linecap="round"/>
<path d="M172 66L199 60" stroke="#EBF3FA" stroke-width="2" stroke-linecap="round"/>
<path d="M199 86L172 80" stroke="#EBF3FA" stroke-width="2" stroke-linecap="round"/>
<path d="M213 73H227" stroke="#EBF3FA" stroke-width="2" stroke-linecap="round"/>
<path d="M172 73H209" stroke="#EBF3FA" stroke-width="2" stroke-linecap="round"/>
<path d="M109 73L72 73" stroke="#EBF3FA" stroke-width="2" stroke-linecap="round"/>
<path d="M172 66L199 60" stroke="#EBF3FA" stroke-width="2" stroke-linecap="round"/>
<path d="M109 80L82 86" stroke="#EBF3FA" stroke-width="2" stroke-linecap="round"/>
<path d="M199 86L172 80" stroke="#EBF3FA" stroke-width="2" stroke-linecap="round"/>
<path d="M82 60L109 66" stroke="#EBF3FA" stroke-width="2" stroke-linecap="round"/>
<path d="M213 73H227" stroke="#EBF3FA" stroke-width="2" stroke-linecap="round"/>
<path d="M68 73L54 73" stroke="#EBF3FA" stroke-width="2" stroke-linecap="round"/>
<path d="M136 88V59C135.167 61 133.4 66.6 133 73C132.6 79.4 134.833 85.6667 136 88Z" fill="#EBF3FA"/>
<path d="M145 60L145 89C145.833 87 147.6 81.4 148 75C148.4 68.6 146.167 62.3333 145 60Z" fill="#EBF3FA"/>
<path d="M114.5 95.5H105L110.5 106.5L86 295.5H114.5L126.5 106.5L114.5 95.5Z" fill="#EBF3FA"/>
<path d="M141 35.5V31L137.5 28.5V34.5L111.5 52.5H126.5L141 35.5Z" fill="#EBF3FA"/>
<path d="M110.722 106.828L104.729 95.2845M110.722 106.828H170.278M110.722 106.828L109.894 113.159M104.729 95.2845V82.6234H116.715M104.729 95.2845H116.715M175.148 95.2845L170.278 106.828M175.148 95.2845V82.6234H164.285M175.148 95.2845H164.285M170.278 106.828L171.106 113.159M109.894 113.159H171.106M109.894 113.159L102.205 171.996M171.106 113.159L178.795 171.996M101.378 178.326H179.622M101.378 178.326L102.205 171.996M101.378 178.326L93.689 237.163M179.622 178.326L178.795 171.996M179.622 178.326L187.311 237.163M178.795 171.996H102.205M93.689 237.163H187.311M93.689 237.163L92.8617 243.494M187.311 237.163L188.138 243.494M188.138 243.494L195 296H86L92.8617 243.494M188.138 243.494H92.8617M116.715 82.6234V95.2845M116.715 82.6234H128.701M116.715 82.6234V52.8326M116.715 95.2845H128.701M128.701 82.6234V95.2845M128.701 82.6234H152.674M128.701 95.2845H140.687M164.285 82.6234V52.8326M164.285 82.6234V95.2845M164.285 82.6234H152.674M116.715 52.8326H164.285M116.715 52.8326H110.722L137.691 34.9582V32.1653V29M164.285 52.8326H172.5L144.058 34.9582V29M164.285 95.2845H152.674M152.674 95.2845V82.6234M152.674 95.2845H140.687M140.687 95.2845V88.5816M140.687 88.5816H136.192M140.687 88.5816H145.182M136.192 88.5816V58.4184M136.192 88.5816C136.192 88.5816 132.821 81.1339 132.821 73.3138C132.821 65.4937 136.192 58.4184 136.192 58.4184M136.192 58.4184H145.182M145.182 58.4184V88.5816M145.182 58.4184C145.182 58.4184 148.553 65.4937 148.553 73.3138C148.553 81.1428 145.182 88.5816 145.182 88.5816" stroke="#509EE3" stroke-width="2" stroke-linecap="round" stroke-linejoin="round"/>
<path d="M145 26C145 28.2091 143.209 30 141 30C138.791 30 137 28.2091 137 26C137 23.7909 138.791 22 141 22C143.209 22 145 23.7909 145 26Z" stroke="#509EE3" stroke-width="2"/>
<path d="M141 22V12" stroke="#509EE3" stroke-width="2" stroke-linecap="round" stroke-linejoin="round"/>
<path d="M136 285C136 282.239 138.239 280 141 280C143.761 280 146 282.239 146 285V296H136V285Z" fill="#509EE3"/>
<path d="M185 209H221C248 209 238.788 219.5 266 219.5" stroke="#509EE3" stroke-width="2" stroke-linecap="round"/>
<path d="M187 230.5H196C223 230.5 225.788 256.5 253 256.5C258 256.5 264 256.5 264 256.5" stroke="#509EE3" stroke-width="2" stroke-linecap="round"/>
<path d="M189 230.5C189 231.881 187.881 233 186.5 233C185.119 233 184 231.881 184 230.5C184 229.119 185.119 228 186.5 228C187.881 228 189 229.119 189 230.5ZM198 296C198 297.381 196.881 298.5 195.5 298.5C194.119 298.5 193 297.381 193 296C193 294.619 194.119 293.5 195.5 293.5C196.881 293.5 198 294.619 198 296Z" fill="white" stroke="#509EE3" stroke-width="2"/>
<path d="M95 221H49.5M49.5 221L30 240.825M49.5 221L80 251.5H91.5M30 251.5H19.5L30 240.825M30 251.5V296M30 251.5V240.825" stroke="#509EE3" stroke-width="2" stroke-linecap="round"/>
<path d="M46 285C46 282.239 48.2386 280 51 280C53.7614 280 56 282.239 56 285V296H46V285Z" fill="#509EE3"/>
<path d="M207 194C207 197.866 203.866 201 200 201C196.134 201 193 197.866 193 194C193 190.134 196.134 187 200 187C203.866 187 207 190.134 207 194Z" stroke="#509EE3" stroke-width="2"/>
<path d="M207 194C207 197.866 203.866 201 200 201C196.134 201 193 197.866 193 194C193 190.134 196.134 187 200 187C203.866 187 207 190.134 207 194Z" stroke="#509EE3" stroke-width="2"/>
<path d="M230 282C230 285.866 226.866 289 223 289C219.134 289 216 285.866 216 282C216 278.134 219.134 275 223 275C226.866 275 230 278.134 230 282Z" stroke="#509EE3" stroke-width="2"/>
<path d="M22 282C22 285.866 18.866 289 15 289C11.134 289 8 285.866 8 282C8 278.134 11.134 275 15 275C18.866 275 22 278.134 22 282Z" fill="white" stroke="#509EE3" stroke-width="2"/>
<path d="M200 194L200 208" stroke="#509EE3" stroke-width="2" stroke-linecap="round"/>
<path d="M223 282L223 296" stroke="#509EE3" stroke-width="2" stroke-linecap="round"/>
<path d="M15 282L15 296" stroke="#509EE3" stroke-width="2" stroke-linecap="round"/>
<path d="M198 296H271" stroke="#509EE3" stroke-width="2" stroke-linecap="round"/>
<path d="M4.5 296L87 296" stroke="#509EE3" stroke-width="2" stroke-linecap="round"/>
<path d="M74 246L74 296" stroke="#509EE3" stroke-width="2" stroke-linecap="round"/>
<path d="M59.5 221.5L89.5 251.5M68 221L92.5 245.5M76.5 221L93.5 238M84 221L94 231.5M90.5 221L95 225.5" stroke="#509EE3" stroke-width="2" stroke-linecap="round"/>
<path d="M77 296C77 297.657 75.6569 299 74 299C72.3431 299 71 297.657 71 296C71 294.343 72.3431 293 74 293C75.6569 293 77 294.343 77 296Z" fill="white" stroke="#509EE3" stroke-width="2"/>
<path fill-rule="evenodd" clip-rule="evenodd" d="M206.868 127.72C209.997 120.889 216.843 116 224.784 116C232.612 116 239.375 120.751 242.564 127.429C244.134 126.36 246.011 125.73 248.027 125.73C253.55 125.73 258.027 130.457 258.027 136H238.027L211 136C211 136 211 136 211 136H191C191 130.457 195.477 125.73 201 125.73C203.192 125.73 205.22 126.475 206.868 127.72Z" fill="#EBF3FA"/>
<path fill-rule="evenodd" clip-rule="evenodd" d="M51.9467 35.9467H58.5267H59.1533V35.9324C66.3035 35.605 72 29.7044 72 22.4733C72 15.0322 65.9678 9 58.5267 9C51.0856 9 45.0533 15.0322 45.0533 22.4733C45.0533 22.9894 45.0823 23.4988 45.1388 23.9998C43.1733 22.8338 40.8981 22.16 38.4733 22.16C31.0322 22.16 25 28.5056 25 35.9467H48.1867H50.6933H51.9467Z" fill="#EBF3FA"/>
</g>
<defs>
<clipPath id="clip0_3_1627">
<rect width="265" height="300" fill="white"/>
</clipPath>
</defs>
</svg>
