<?xml version="1.0" standalone="no"?>
<svg xmlns="http://www.w3.org/2000/svg" height="1841pt" preserveAspectRatio="xMidYMid meet" viewBox="0 0 1920 1841" width="1920pt">
  <path d="m9399 18203c-405-360-685-599-829-708-36-27-139-110-230-185-640-530-1097-788-1624-915-481-117-1484-143-2299-59l-67 7v-42c0-23-5-41-11-41s-30-16-55-36l-44-36 56-72 56-71-6-190c-18-533-43-916-72-1125-36-263-148-484-344-681-111-111-190-170-316-233-155-77-214-89-741-151-263-31-631-76-818-101-187-24-346-44-353-44-11 0-12-11-7-48 5-41 3-51-14-66-28-25-27-29 14-74 34-38 36-45 65-223 75-461 92-690 66-889-37-276-113-605-251-1088-78-273-168-561-212-677-157-421-611-1058-1212-1702-78-83-137-154-131-158 5-3 10-26 10-51v-44h46c45 0 46 0 312-242 410-372 552-500 748-675 201-179 319-311 483-539 255-356 483-798 576-1119 96-329 229-1195 360-2332 31-275 31-265-3-285-15-10-40-28-56-41l-29-24 32-47c20-29 37-44 44-39 7 4 34 22 60 41l48 35 67-31c88-41 363-148 527-206 223-78 497-156 800-226 262-61 439-134 620-255 184-122 307-243 567-555 80-96 173-208 207-248 91-108 249-320 403-542 136-196 591-880 663-998 38-62 38-63 22-96l-16-34 54-22 54-22 83 35c220 94 726 289 833 321 434 128 1090 243 2190 382 268 33 304 36 470 31 186-6 292-20 471-62 137-32 383-113 537-177 153-63 501-239 629-318 94-59 98-62 114-114l17-54 43 15c39 13 46 13 66-1 12-9 25-16 28-16 8 0 159 170 267 300 121 145 248 318 371 503 407 613 1101 1325 1652 1694 330 221 980 457 1783 647 317 75 311 75 370 37 26-17 50-31 52-31s16 22 32 50c15 27 34 50 42 50 9 0 11 7 7 22-22 81-29 214-18 336 21 242 73 431 199 735 41 100 101 247 133 327 244 606 401 838 683 1005 270 159 615 451 1169 987l247 239 38-10c20-6 38-9 39-8s8 31 16 66l14 65-118 168c-428 610-810 1222-964 1543-249 522-412 1174-510 2040-46 406 32 856 251 1466 76 209 140 366 219 533 49 103 53 117 38 125-9 5-82 38-162 74-478 214-870 424-1130 605-440 307-904 899-1140 1457-112 263-432 1217-600 1785-29 96-55 179-59 183-5 4-56-10-114-32-237-91-399-123-758-153-238-20-341-23-789-23-806 0-1246 36-1510 125-132 44-560 242-694 322-354 209-1006 696-1507 1125-15 12-43-10-250-194zm429-106c528-433 995-773 1297-944 113-64 448-221 613-287 293-117 729-160 1622-160 693 0 1086 32 1348 108 46 13 79 19 75 12-4-6-151-195-327-420l-320-409-19 24c-11 13-25 32-32 42-12 18-14 18-51-1-22-11-138-62-259-115-538-232-947-387-1230-463-371-101-702-30-1135 242-210 131-678 479-940 696-350 291-668 632-787 845l-35 63-35 435-35 436 23 25c12 13 26 24 31 24s93-69 196-153zm-358-9c0-7 14-182 30-388s30-388 30-405c0-24-28-61-151-200-182-205-400-427-529-538-52-45-158-140-235-211-407-376-728-577-1182-741-311-113-706-200-1140-252-225-26-667-24-823 5-201 37-326 83-410 151-92 75-84 75-78-1 3-38 3-68-1-68-3 0-118 144-256 320l-250 319-3 55-3 56h-43c-30 0-46 5-50 15-7 19-3 19 195 1 307-29 616-39 994-33 676 11 1054 57 1399 171 485 161 888 405 1476 896 63 53 160 130 215 172 145 109 742 621 784 671 16 20 31 22 31 5zm80-995c0-5 25-421 54-926l55-918-152-171c-171-192-338-393-401-483-34-49-65-76-168-145-274-184-834-460-1238-609-243-90-310-102-561-102-175 0-271 8-469 37-145 21-442 84-458 96-13 11-197 244-844 1070-187 238-251 327-255 353-6 40-1 42 51 20 179-75 560-116 896-95 643 38 1264 183 1720 401 363 174 570 320 960 679 63 58 161 146 218 194 117 101 342 332 482 494 89 103 110 123 110 105zm276-213c103-118 366-378 499-491 122-104 369-297 599-469 456-340 770-510 1066-577 94-21 375-24 465-5 254 55 966 318 1439 531 38 17 70 30 72 28s-4-46-14-98l-18-94-205-320c-113-176-250-390-305-475-54-85-154-240-220-345l-122-190-118-33c-180-49-536-138-649-161-279-56-572-58-859-5-265 49-683 187-866 285-275 148-509 354-705 620-119 162-111 127-135 569-40 746-69 1266-75 1345l-7 80 38-50c21-27 75-93 120-145zm5247-405c233-744 478-1439 573-1627 48-94 178-315 247-418 265-397 553-703 877-932 192-136 653-385 1013-548 82-37 144-71 138-74-11-7-498-175-1278-440-198-68-366-127-372-130-24-15-8 10 41 67 51 59 52 60 31 76-11 9-98 77-193 151-185 144-467 382-616 521-243 225-465 508-755 964-183 287-451 750-564 976-88 175-155 417-155 562 0 53 5 67 42 126 22 36 145 199 273 361 127 162 309 395 405 518 95 122 174 221 176 220 1-2 54-169 117-373zm-10329-929c142-180 262-340 267-355 5-14 20-109 33-211 58-434 60-729 8-930-84-324-301-731-569-1065-119-149-329-357-436-432-166-117-423-233-635-289-115-29-319-64-381-64h-43l7-47c6-42 5-46-8-33-8 8-271 291-586 628-490 526-571 617-571 642 0 17 4 30 10 30 5 0 283 34 617 75 335 42 680 84 768 95 307 37 485 112 707 298 157 131 305 334 379 517 41 103 64 198 83 341 27 213 66 832 66 1064 0 79 2 92 13 80 8-8 130-163 271-344zm9226-151c43-199 132-393 370-809 385-671 701-1129 980-1420 148-154 501-462 763-664 59-46 107-87 107-92s-5-12-10-15c-6-4-36-42-66-86-31-43-60-79-66-79-9 0-144-81-757-454-123-75-230-136-237-136-18 0-207 81-318 137-209 104-369 219-541 389-238 234-604 625-649 693-191 287-298 842-276 1434 3 79 1 138-4 140s9 30 31 63c22 32 118 181 213 329 320 501 433 675 436 672 2-1 13-48 24-102zm-4245-1067 53-743-39-50c-59-76-203-225-308-319l-94-84-62 152c-148 362-266 621-345 756-24 41-56 104-71 139l-27 65 99 60c137 84 220 151 266 215 88 125 462 566 471 556 2-2 28-338 57-747zm-4214 242c183-234 395-504 471-601l138-177-10-153c-51-781-163-1328-354-1721-66-137-119-212-220-314-195-195-510-325-910-374l-89-11-146 79c-80 44-258 142-396 217-137 76-347 191-465 255-118 65-258 142-310 172l-95 53-3 46-3 47 83 12c296 43 653 180 889 341 424 290 894 964 1057 1515 54 182 66 282 59 514-6 179-24 401-43 510-4 23-3 32 4 25 5-5 159-201 343-435zm4330 373c57-77 257-281 345-354 172-140 344-240 569-329 367-145 730-227 1050-237 282-9 455 17 934 138 129 32 236 58 237 56 1-1-65-108-148-237s-197-307-253-395c-217-340-397-620-398-621s-83-7-182-13c-269-18-475-15-662 9-210 26-626 96-728 121-122 31-257 92-366 164-106 71-255 210-308 289l-34 48-48 657c-26 361-49 680-52 709-2 28-3 52-2 52 2 0 22-26 46-57zm3328-1203c50-452 146-761 308-988 60-84 662-703 782-804 107-90 196-152 326-225 92-52 306-153 325-153 5 0 10-4 10-9 0-9-78-54-655-379-132-75-293-166-358-203l-119-67-106 72c-59 40-116 77-127 83-11 7-17 14-15 17 3 3 147 51 320 106 173 56 341 116 373 133 62 34 326 218 327 228 0 3-46-3-102-13-57-10-209-37-338-59-206-35-259-48-425-106-104-36-236-80-293-99l-104-35-95 58c-143 88-337 237-438 338-106 105-172 195-215 289-73 164-204 606-265 897l-15 70 242 377c133 207 298 465 366 572 69 107 157 244 196 305l71 109 6-204c4-113 12-252 18-310zm-4366 418c9-86 109-448 161-583 24-60 55-162 70-225 61-270 86-384 82-387-2-2-64-40-137-84-156-93-266-148-399-196-449-163-1216-216-1379-96-28 21-48 47-544 697-181 235-327 430-325 431 2 2 41-5 88-15 351-76 834-101 1050-55 199 43 614 213 1019 418 140 70 264 135 275 143s23 14 27 14c3 0 9-28 12-62zm-2398-738c82-107 270-355 419-550l271-355-1-275c0-286-7-358-55-561l-20-87-92 24c-50 13-93 22-95 20-4-4 80-66 126-92 17-10 32-24 32-31 0-28-75-198-121-274-72-120-150-211-258-301-166-138-349-240-526-294-80-25-106-28-240-28-177-1-118-23-575 218-173 92-366 192-427 224-62 31-113 59-113 62s42 13 94 23c219 40 468 135 631 241 110 72 234 194 304 301 232 354 400 996 451 1730 15 212 18 232 34 214 7-8 80-102 161-209zm3385-38c0-10 16-299 35-643l36-624-78-75c-88-85-296-270-299-267-2 1 2 90 8 197 10 187 10 203-15 385-15 105-43 280-62 390-20 110-39 214-41 230-5 28 3 37 98 121 57 51 148 139 203 197 55 57 103 105 108 106 4 0 7-7 7-17zm380-233c202-134 321-173 712-239 533-88 711-102 1037-81 96 6 175 10 176 9 3-3-497-917-548-1003-23-39-30-43-128-72-283-86-450-117-644-117-140 0-155 2-222 27-84 32-173 81-258 141-81 58-242 203-284 257l-35 43-32 600c-18 331-33 614-34 630 0 28 4 25 88-55 48-46 125-109 172-140zm-7740-604c271-291 511-549 533-572l40-42-2-78c-5-228-66-562-146-814-167-518-444-1014-849-1519-172-214-474-535-653-692-29-25-53-48-53-50 0-3 54-47 120-98s120-95 120-97c0-3-24-3-52 1-29 3-332 11-673 17-341 7-622 13-624 15s31 41 74 86c515 547 977 1184 1166 1608 112 252 366 1131 463 1601 80 390 82 545 15 1004-16 110-29 204-29 210 0 12-30 44 550-580zm6746 228c14-63 17-136 18-407 2-306 4-343 28-491 15-88 29-188 33-221l6-61-111-72c-123-80-227-132-310-152-32-8-108-14-185-13-145 0-254 18-402 65l-93 30-113 132c-62 73-247 289-411 480-164 192-297 350-295 351 2 2 55-1 118-7 257-24 820 49 1100 143 172 58 364 150 521 251 41 27 76 49 77 49s9-35 19-77zm8734-38c0-3-27-69-59-147-155-375-288-811-340-1118-46-270-51-443-21-707 95-836 273-1543 513-2043 147-305 523-910 922-1485 54-77 99-145 102-151 2-7-65 5-164 27-92 21-339 77-548 124-433 98-700 179-668 203 10 7 81 44 157 83 77 38 142 71 144 74 2 2-135 147-304 322-396 408-829 863-886 931-109 128-367 608-566 1052-122 273-299 707-331 815-73 245-68 576 13 840 51 168 134 360 216 499 46 77 53 85 97 101 27 9 158 54 293 100 307 104 1183 406 1310 450 94 33 120 40 120 30zm-5706-82c36-151 125-469 166-588 87-252 154-359 331-530 110-107 205-182 357-284 52-35 92-64 90-66-1-1-88-38-193-81-254-105-606-281-671-336-28-24-81-69-118-102l-66-58-100 87c-227 198-323 330-372 510-25 90-35 319-19 434 10 78 18 96 103 250 232 422 301 546 378 689 46 83 86 152 90 152 3 0 14-35 24-77zm-4549-792 387-453-7-47c-6-42-49-229-76-328-6-24-14-43-18-43-3 0-44 45-90 100s-130 145-187 200c-90 86-118 106-206 150-57 27-152 66-213 85-60 20-110 37-112 38-1 2 7 36 17 77 34 131 60 339 67 533l6 188 22-23c12-13 196-227 410-477zm8256 112c-44-89-80-177-123-303-108-320-126-637-52-934 89-357 612-1493 861-1869 60-91 160-199 619-675 429-445 538-561 533-566-2-1-65-35-140-74l-136-71-249 83c-137 47-402 137-589 201s-392 133-455 155-140 44-170 50l-55 10-245 256c-135 140-349 357-475 482-288 283-353 366-406 518-38 110-49 198-64 524-8 179-17 336-20 350s-9 73-15 132c-27 298 65 667 269 1072l106 211 180 109c99 60 286 174 415 253 129 78 236 143 238 143 1 0-11-26-27-57zm-6051-758c-3-401-2-742 2-757 5-24 1-32-30-56-39-31-163-105-167-100-1 2-23 113-50 248-26 135-68 324-93 420l-45 175-4 230-5 230 109 91c59 50 148 128 196 174 49 45 89 80 90 78s0-331-3-733zm195 646c146-144 373-282 520-317 156-37 417-16 704 57 85 21 156 39 158 39s-7-19-20-42c-14-24-78-140-144-258-255-456-359-643-480-857l-125-223h-82c-224 0-448 52-533 124-31 26-33 30-27 80 6 46 3 55-20 83l-26 31v671c0 369 3 671 7 671s35-27 68-59zm-6580-194c110-61 279-154 375-207s273-150 393-216l218-119-4-450c-4-414-6-456-25-530-76-296-236-562-507-844-218-227-602-502-887-636-71-33-128-62-128-65s23-18 50-33c28-16 50-29 50-30s-42-1-92 1c-51 2-336 11-634 21l-541 17-131 104-132 104 85 79c265 246 631 682 851 1017 248 376 406 693 524 1050 97 293 149 533 173 797l11 132 76-41c41-23 165-91 275-151zm3870-381c82-61 157-134 394-380l133-139-22-56c-99-243-245-457-378-555-142-103-341-161-473-136-57 11-172 60-477 204-108 51-282 133-385 181l-189 89 99 22c216 49 418 152 622 317 200 163 332 352 424 610 6 16 17 11 89-39 46-32 119-85 163-118zm1944-361c9-419 19-546 50-685 5-24 8-46 5-49-11-12-178-12-265-1l-98 12-117 182c-498 770-574 889-574 895 0 4 51-4 113-16 181-37 391-32 532 13 66 22 209 95 277 142l53 38 7-46c4-25 12-243 17-485zm2236 222c31-107 68-182 131-267 56-73 226-246 302-305 28-22 50-43 49-46-3-9-122-107-212-175-209-157-362-240-554-300-64-20-149-49-189-66l-72-30-78 57c-84 63-152 124-152 138 0 8 88 168 342 622 73 132 190 340 258 463l125 223 12-113c7-62 24-153 38-201zm3375 249c0-2-26-61-59-132-117-258-185-478-215-693-20-139-20-266-1-446 8-77 19-261 24-410 10-273 25-395 59-495 28-79 77-175 130-250 25-36 241-262 480-504 238-241 431-440 429-442s-251 46-553 107l-549 112-125 116c-69 64-204 184-301 268-104 89-202 183-238 228-176 219-252 513-252 975 0 271 25 511 87 842l26 137 107 59c113 63 578 326 801 453 127 73 150 84 150 75zm-6448-591c96-148 178-276 182-283 8-14-148 98-268 192-56 44-273 176-310 189-7 2 39 209 81 361 6 20 20-1 315-459zm-3725 182c258-138 808-426 834-437 36-16 43-75 29-250-20-247-80-499-177-744-161-409-391-766-592-920-109-84-68-78-611-87-267-4-592-10-722-12l-237-4-46 27-46 27 98 58c232 138 473 313 645 468 270 244 514 596 608 875 51 154 60 234 60 562 0 260 8 510 16 510 1 0 65-33 141-73zm8821-55c61-41 112-78 112-81s-107-56-238-118c-130-62-384-182-565-268-180-85-333-155-339-155s-40 19-75 42c-51 33-62 43-51 53 33 30 210 175 383 315 210 169 251 192 471 269 132 47 140 49 164 33 14-8 76-49 138-90zm132-359c-51-299-65-457-65-748 0-290 11-401 60-596 76-305 164-431 518-738 93-80 182-158 200-173 17-15 29-29 26-32-2-2-209 34-459 80s-460 84-465 84c-6 0-42 21-80 46-39 25-99 59-135 76-75 34-352 144-454 179-60 21-75 31-113 79-128 160-264 394-314 540-33 94-38 280-11 410 23 113 73 250 125 343 37 65 41 69 120 106 157 74 493 233 627 297 326 156 426 202 436 203 6 1 1-56-16-156zm-5456-67c76-63 155-169 221-296 68-131 118-187 226-251 38-23 69-44 69-48 0-10-67-120-96-158l-25-33h-361-360l-311 102c-262 86-307 103-286 111 150 60 245 121 347 225 94 97 166 205 252 385l71 146 102-71c56-39 124-89 151-112zm-2268-147c132-61 304-142 384-179s232-108 338-159c107-50 198-91 202-91 17 0 23-72 17-204-8-197-55-350-162-530-91-154-319-432-398-486-19-13-38-36-41-50-11-50-26-57-141-73-82-12-253-17-675-22l-565-7 42 37c156 134 386 487 512 785 153 364 227 656 238 943 3 81 7 147 8 147 2 0 110-50 241-111zm6471-148c-2-4-26-53-55-111-85-174-129-382-119-564 7-124 33-220 97-354 42-87 72-139 177-299l16-24-54 21c-30 12-110 46-180 75-226 97-359 124-656 132l-203 6v41c0 38 19 224 35 342l7 52-95 83-96 83 97 52c274 146 678 397 796 495l91 76 73-50c40-28 71-53 69-56zm-2532-77 7-120-36-32c-20-18-40-32-44-32-7 0-80 125-116 197l-16 31 73 40c39 22 81 47 92 55 18 14 21 14 26-1 4-9 10-71 14-138zm131 125c3-6 26-20 50-31l44-19-52-43c-29-24-54-43-54-42-1 0-5 34-8 74-7 68 1 91 20 61zm357-104 38-6-21-33c-24-40-25-81-3-203 9-51 14-95 12-98-8-7-242 14-251 23-4 4-11 28-14 53-8 58 15 141 55 196 30 42 99 83 129 78 9-2 34-7 55-10zm204-38c-7-12-27-44-43-72l-29-50-7 45c-3 25-7 59-7 75-1 30-1 30 49 27 50-4 51-5 37-25zm-1326-53c48 3 93 8 101 11 12 5 18-6 27-42 7-26 25-81 41-120 15-40 25-73 21-73s-20 14-37 31c-49 51-113 87-203 115-79 24-231 87-231 96 0 3 44-2 98-10 58-8 132-11 183-8zm1481-75c35-28 75-58 91-67 15-9 27-19 27-22s-33-26-73-52-98-70-130-99c-64-57-72-56-101 9l-18 39 69 121c37 67 69 122 70 122 2 0 31-23 65-51zm-3439-198c148-49 271-91 273-94 3-2-35-7-83-11-202-16-428-47-451-62-13-9-25-14-27-12-5 6 8 268 14 268 3 0 127-40 274-89zm1859-58c92-41 177-85 189-96l22-20-23-19c-40-33-122-24-267 28-144 52-255 84-290 84-13 0-23 2-23 4 0 3 18 38 40 79l41 75 72-29c40-16 147-64 239-106zm2109-169c79-69 98-90 94-107-5-25-21-174-31-289-7-91-2-89-134-58-182 44-328 147-386 275-38 82-31 111 35 148 51 29 281 115 310 116 7 1 58-38 112-85zm-3306-123c21-35-152-392-238-489-32-37-73-91-90-119-18-29-35-53-40-53-17 0-1090-145-1152-155-26-5-20 4 58 82 201 203 382 475 450 676 5 12 17 17 49 17 24 0 68 8 98 17 45 13 125 17 435 23 209 3 390 7 402 8s24-2 28-7zm862-6c164-9 304-18 311-20 20-7 14-48-14-89l-27-39-246 7c-135 3-352 9-481 12l-235 6-54-36c-37-25-51-31-46-19 21 50 45 138 45 164v29h224c123 0 359-7 523-15zm1929-441c60-37 125-79 144-94s49-35 66-43c31-16 213-64 327-87l57-11v-95-95l-57-26c-32-14-100-45-150-69l-93-43-41 72c-139 240-231 384-316 490-30 37-52 67-50 67 3 0 54-30 113-66zm-2380 8c12-8-44-210-85-312-31-74-38-226-21-435 7-88 13-162 14-165 1-7-98-60-102-55-3 2 3 43 13 90 25 126 18 234-19 305-32 61-100 161-158 231l-38 47 90 133c103 154 123 168 230 169 36 0 70-4 76-8zm3250-282c65-6 243-26 394-45s347-42 434-50c249-25 337-45 335-79 0-6-48-39-107-74-203-119-438-310-560-452-89-105-137-187-200-340-28-69-60-147-71-173l-21-49-78 70c-43 39-190 197-326 351-221 248-253 288-282 356-19 42-34 80-34 86 0 11 151 84 277 135l73 29v129 128l24-6c13-3 77-10 142-16zm-4125-156c-60-127-122-232-219-372l-86-122-30 29c-25 23-367 250-580 385l-49 31 34 7c19 4 138 21 264 38 127 17 336 45 465 63s237 32 238 31c2-1-15-42-37-90zm3143 5c65-46 100-81 150-148 36-49 66-93 66-98 0-12-222-83-232-74-7 6-78 340-78 366 0 8 2 15 5 15 2 0 43-27 89-61zm-2685-23c66-82 119-170 131-218 12-42-8-199-38-308-17-61-21-67-68-92-29-16-100-79-174-155-252-259-584-593-587-590-1 2 8 59 22 128 13 68 29 176 36 239 9 89 18 128 39 170 15 30 30 69 34 85 11 45 79 148 246 375 83 113 186 255 228 317s78 112 79 113c1 0 24-29 52-64zm5091-26c14-4 24-11 24-16-1-5-5-28-9-51-6-39-5-43 17-48 20-4 1261-228 1346-242 17-3 32-8 32-12-1-3-44-31-97-61-470-268-890-597-1031-808-36-53-173-311-389-732-50-96-119-244-154-328s-69-151-75-150c-6 2-90 73-185 159-96 86-311 279-479 429s-309 276-314 280c-4 5 13 52 39 107l47 98 61-66c65-69 102-89 169-89 32 0 40 4 48 24 19 50-27 153-120 271l-61 76 45 109c25 59 56 137 69 172 61 159 139 271 292 416 147 139 372 298 583 410 69 37 81 46 71 59-13 15-5 14 71-7zm-11673-49 323-10 177-143c279-223 447-364 593-499 74-68 250-223 390-344 363-313 532-466 721-655 283-283 370-404 418-580 92-340 91-955-3-1657l-22-165 50-22 49-22-69-50c-38-28-150-107-249-176s-377-264-619-432c-241-169-439-306-441-304s-10 73-19 158c-48 454-157 1262-230 1710-106 648-190 914-428 1350-161 294-417 657-605 857-32 33-186 175-342 315-330 293-755 679-759 687-2 7 584-3 1065-18zm5354-222c202-132 375-251 384-265 15-23 13-28-36-114-100-178-175-358-219-529-12-43-31-190-45-336l-25-260-172-173c-95-95-198-195-228-222l-55-48 3 102c19 554-476 1280-1315 1934-68 52-121 97-119 100 3 2 278 8 613 13 418 7 633 14 688 23 157 26 116 44 526-225zm-4246 186c264-9 535-16 603-17l124-1 176-107c362-219 685-432 862-568 118-90 401-377 488-494 232-311 370-649 417-1028 25-198 23-542-4-775-12-99-26-196-32-215-8-30-51-67-271-240-143-113-353-278-465-367-195-154-206-161-231-151-50 22-49 19-31 170 49 403 69 790 58 1113-16 414-81 655-227 836-194 240-502 533-1097 1044-116 99-250 219-300 266-106 101-236 212-478 408-97 79-177 144-177 146 0 1 24 0 53-2 28-2 268-10 532-18zm7800-155c27-99 46-181 44-183s-30-24-61-49c-38-30-70-47-99-52-23-4-44-5-46-2-5 5 27 186 52 293 14 58 53 173 59 173 2 0 24-81 51-180zm-5487 78c396-281 795-664 1050-1009 187-253 314-517 357-740 29-157 12-369-37-464-16-29-901-816-906-804-2 4 2 50 8 101s14 206 17 343c10 486-52 804-226 1160-171 349-458 684-811 945-105 78-431 293-645 426l-160 99 56 3c64 3 802 18 1028 20l153 2zm6199-220c32-46 136-175 232-288 95-113 192-229 215-259 22-30 96-119 164-197 67-79 122-147 122-152s-21-54-46-108l-45-98-470 470-469 469-21 75c-16 59-18 76-7 79 45 17 254 89 260 90 4 0 33-36 65-81zm4278-142 618-125 65-64 65-65-64-28c-105-46-435-211-523-261-191-109-370-236-461-327-78-79-121-139-334-465-501-767-650-1054-712-1372-10-55-19-113-19-129 0-17-2-30-5-30s-119 89-258 198c-323 254-741 580-789 616-21 16-38 33-38 39 0 30 179 422 298 652 298 575 305 588 422 709 167 173 378 334 712 542 126 78 392 232 404 234 1 0 279-56 619-124zm-4885-113c22-89 39-249 61-578l12-180-52-218c-48-207-51-225-51-356v-138l-72-124c-40-68-82-143-92-167-20-43-36-55-36-25 0 9-56 248-125 529-69 282-125 515-125 517 0 3-26-2-58-10l-58-15 93-381c154-630 170-697 165-697-3 0-33 16-68 35-195 109-445 167-625 145-107-13-429-108-607-179-29-11-54-21-56-21-4 0 36 156 170 664 52 197 93 360 91 363-3 2-28 10-57 18-38 10-52 11-55 2-4-12-145-549-210-802-20-77-39-146-41-154-2-7-27 24-54 69-61 101-111 168-185 249-165 177-337 265-944 482-107 38-197 72-199 74-3 2 174 187 393 410 251 256 414 414 443 430l45 25 91-15c126-22 129-24 144-82 27-104 129-224 276-322 122-82 263-162 308-176 79-23 186-27 306-11 93 13 417 84 574 126 78 22 177 177 258 407l32 91 85 7c80 7 86 9 136 51 29 24 55 44 58 44 4 0 16-39 29-87zm-2095 58c-3-6-11-8-17-5-6 4-5 9 3 15 16 10 23 4 14-10zm8460-341c399-135 559-191 568-199 4-4-27-27-69-51-101-57-355-227-474-317-238-179-470-401-590-566-145-197-566-1007-964-1857-53-113-102-216-109-230-11-21-24-27-87-38-45-8-81-9-90-4-18 11-865 655-899 684-22 19-23 24-17 101 26 300 158 606 481 1112 187 292 493 749 527 786 67 74 228 192 393 289 136 80 492 259 650 325 77 33 142 61 144 62 3 2-19 27-47 56-29 29-52 56-52 59 0 4 84-22 188-58 103-36 304-105 447-154zm-5261-599c-2-2-66-8-142-12-235-13-492-77-607-150l-47-30 6 53c3 29 14 118 23 198 18 159 22 418 10 605l-8 120 384-390c212-214 383-392 381-394zm-4368 302c-9-43-30-130-46-193-30-114-31-116-92-177-34-34-64-61-66-58-2 2 17 68 42 147 31 99 65 177 108 255 34 62 64 111 66 109 2-3-4-40-12-83zm10564-22c134-47 276-87 428-121 125-28 358-80 517-116 160-36 295-67 301-69 17-5-356-369-636-621-293-263-522-443-670-529-186-106-298-212-419-396-122-184-232-421-482-1045-140-350-190-568-193-844-2-146-3-155-22-154-21 0-1423 834-1424 847 0 4 21 7 46 7h45l63 133c35 72 87 184 116 247 94 203 503 1028 614 1240 211 400 294 531 435 688 194 217 550 489 991 755 41 25 78 46 82 46 4 1 97-30 208-68zm-10295-488c413-149 645-252 752-335 126-96 273-286 359-460l38-77-179-543c-98-299-179-544-180-545-1-2-16 34-33 80-73 192-254 397-484 547-214 141-923 486-1243 605-55 20-102 39-104 41-6 6 123 136 312 316 81 77 145 134 143 127-2-8-7-49-10-93-5-70-4-77 10-65 25 21 41 60 47 119 12 106 19 118 155 253l129 127 54-16c30-9 135-45 234-81zm4681-314c247-221 450-405 452-409 2-5-15-4-38 1-89 20-274 29-389 18-242-22-439-108-589-257-114-113-409-460-547-642-169-224-204-290-291-552-22-65-41-118-44-118-8 0-250 811-250 838 0 12 34 118 75 235 146 414 188 586 210 847l16 195 37 34c153 138 405 206 783 210l127 1zm-1751-451c-15-78-31-131-71-238-7-17-34 61-34 98 0 26 108 247 117 238 3-3-2-47-12-98zm-672 53c105-28 249-92 355-158 48-30 88-56 90-58s23-70 48-151c32-106 42-157 38-181-5-26 0-43 24-80 21-34 64-164 147-443 64-217 125-424 136-459s18-65 17-67c-2-1-66 38-143 87-156 99-382 218-523 274-229 90-416 111-597 67-225-56-575-181-873-313-86-38-157-67-159-66-1 2 96 302 216 668l218 664 49 24c102 50 505 186 625 211 68 14 244 4 332-19zm-3254-133c281-104 993-447 1176-566 317-206 488-438 510-692 9-99-7-184-57-295-22-49-41-99-43-110-1-11-52-150-113-310-60-159-163-431-228-602-65-172-121-313-124-313-3 1-45 103-95 228-193 487-422 888-642 1122-214 227-695 488-1342 726-79 29-145 55-148 57-2 3 146 137 329 298 182 162 388 345 457 406 147 131 117 126 320 51zm5952 22c123-13 263-41 341-68 43-15 128-76 374-269 176-137 436-341 579-453s263-208 267-214 8-20 8-32v-20l-127 17c-208 29-435 42-623 36-329-11-557-71-723-189-90-66-684-616-898-835-294-299-376-415-444-636-15-48-29-86-31-85-2 2-51 141-109 308-58 168-144 416-191 552l-86 246 20 59c106 303 169 468 200 518 126 209 637 817 766 912 175 129 403 180 677 153zm-6974-936c435-154 861-358 1135-546 260-178 506-544 758-1126 64-148 167-423 176-471 4-19-55-240-181-682-102-360-190-665-194-679-6-19-11 2-20 80-42 373-180 708-408 990-181 224-658 632-1176 1007-380 274-459 333-592 437-166 130-258 191-440 290l-135 73 438 347c240 190 440 346 444 346s91-30 195-66zm8348-213c140-19 345-55 389-68 17-5 16 0-9 43-16 27-22 44-14 38s166-127 352-268c186-142 336-260 334-262s-94-27-204-54c-662-164-1225-457-1532-798-240-266-838-1136-1271-1849-58-95-108-172-111-173-3 0-29 75-59 167-29 93-90 283-135 423-227 699-305 949-305 982 0 94 60 310 119 426 66 132 235 323 554 630 299 287 664 615 729 655 99 60 231 97 473 131 83 12 547-4 690-23zm-4082-35c189-48 480-193 748-372 203-136 184-108 288-414 50-146 141-412 204-592 63-181 112-328 110-328s-88 36-191 79c-606 257-1108 434-1393 491-129 26-243 26-334 1-204-57-528-199-1070-471-203-101-373-186-377-188-3-2 16 54 44 125 50 128 182 477 369 973 55 146 106 270 112 276 40 37 621 279 850 353 109 36 265 77 357 95 50 9 189-4 283-28zm-5387-491c150-66 414-236 609-390 66-53 187-144 269-203 667-481 1020-765 1301-1047 238-239 401-545 475-891 27-127 38-410 21-538-7-48-10-91-7-94 3-2 13 1 21 8 14 12 15 10 9-16-4-16-56-148-117-294-60-146-136-332-169-415-33-82-62-154-65-158-3-5-36 38-73 95-37 56-134 204-215 328-205 313-491 725-637 917-145 190-489 602-603 722-180 189-339 308-550 412-149 73-250 106-480 160-238 55-430 108-655 181-201 65-621 229-617 240 2 7 216 158 1009 711 164 115 321 228 350 252s56 44 60 44c4 1 33-10 64-24zm10699-119c17-14 319-196 671-406 351-211 655-392 674-403l34-21-29-8c-17-4-122-30-235-57-415-101-867-240-1170-360-527-209-847-435-1415-1005-380-381-602-644-833-991-130-195-198-289-331-455-90-112-232-275-240-275-3 0-16 7-29 16-17 12-41 78-111 300-124 397-231 747-231 758 0 25 345 577 625 1001 324 491 663 963 790 1099 315 337 827 604 1471 765 306 76 313 77 359 42zm-5614-632c265-45 899-268 1468-516 113-49 214-92 224-95 12-4 32-54 73-182 31-97 102-320 159-496s142-439 189-585c46-145 83-266 81-268s-92 57-202 131c-646 438-1193 748-1525 865-153 54-223 64-448 65-411 2-741-72-1088-243-211-104-376-214-869-582-117-87-215-158-219-158-3 0-4 8-1 18 200 702 380 1319 385 1324 4 4 113 62 242 129 701 363 1260 606 1401 608 19 1 78-6 130-15zm322-1223c289-79 740-319 1362-725 110-71 286-190 391-263 151-105 193-139 198-160 4-16 64-209 132-431 69-222 124-406 121-409-3-2-54 24-114 58-212 123-537 269-767 344-336 111-663 164-926 152-124-6-277-25-930-113-703-94-1314-209-1625-305-101-31-426-154-674-255-74-30-135-53-137-52-2 3 61 158 273 673 77 185 106 269 143 407 10 33 38 58 283 241 358 269 650 476 765 544 211 124 440 215 672 266 100 23 158 32 320 51 19 2 125 3 235 1 167-2 213-6 278-24z" transform="matrix(.1 0 0 -.1 0 1841)" fill="white" stroke="none" stroke-width="2" vector-effect="non-scaling-stroke"/>
</svg>
